<?xml version="1.0" standalone="no"?>
<!DOCTYPE svg PUBLIC "-//W3C//DTD SVG 20010904//EN"
 "http://www.w3.org/TR/2001/REC-SVG-20010904/DTD/svg10.dtd">
<svg version="1.0" xmlns="http://www.w3.org/2000/svg"
 width="700.000000pt" height="700.000000pt" viewBox="0 0 700.000000 700.000000"
 preserveAspectRatio="xMidYMid meet">
<metadata>
Created by potrace 1.14, written by Peter Selinger 2001-2017
</metadata>
<g transform="translate(0.000000,700.000000) scale(0.100000,-0.100000)"
fill="#000000" stroke="none">
<path d="M2040 5089 c-85 -49 -162 -93 -170 -99 -8 -5 -44 -26 -80 -46 -36
-20 -90 -52 -120 -70 -185 -110 -822 -474 -830 -474 -6 0 -10 -4 -10 -8 0 -5
-18 -17 -40 -27 -23 -10 -37 -22 -33 -26 4 -4 310 -181 678 -394 369 -213 691
-400 718 -416 26 -16 48 -29 50 -29 1 0 2 159 2 353 l0 352 333 0 c182 0 332
-1 332 -2 0 -1 -23 -25 -51 -55 -63 -66 -116 -143 -161 -233 -48 -95 -55 -116
-78 -220 -26 -119 -22 -313 9 -428 41 -154 127 -309 233 -417 l54 -55 -1063 0
-1063 0 0 -22 c-1 -13 -1 -66 -1 -118 0 -52 0 -103 1 -114 0 -18 48 -19 1988
-19 1093 -1 2003 -1 2022 -1 l36 -1 -1 -343 c-1 -188 1 -346 3 -350 2 -4 20 2
40 14 21 12 111 64 202 117 91 52 223 128 294 170 72 41 144 82 160 92 17 10
103 59 191 110 88 51 178 103 200 116 22 12 114 65 203 117 l164 95 -69 40
c-289 169 -375 218 -423 245 -30 16 -59 33 -65 37 -5 5 -30 19 -55 33 -25 14
-225 129 -444 256 -220 127 -400 231 -400 231 -1 0 -1 -157 -1 -350 1 -192 -2
-351 -5 -351 -12 -3 -660 -4 -660 -1 0 2 13 15 29 30 74 71 163 202 209 309
19 44 28 74 59 188 13 50 12 273 -2 345 -37 190 -125 360 -253 488 l-47 47
1060 0 1060 0 5 65 c3 36 4 97 2 137 l-4 72 -1976 0 c-1087 0 -1997 0 -2022 1
l-45 0 0 346 c0 190 -2 347 -5 349 -3 2 -75 -37 -160 -86z"/>
</g>
</svg>
